<?xml version="1.0" encoding="UTF-8" standalone="no"?>
<!-- Created with Inkscape (http://www.inkscape.org/) -->

<svg
   width="20.000002"
   height="20.000002"
   viewBox="0 0 5.2916672 5.2916671"
   version="1.1"
   id="svg195"
   inkscape:version="1.2.2 (b0a8486541, 2022-12-01)"
   sodipodi:docname="jerevedunemaison.svg"
   xmlns:inkscape="http://www.inkscape.org/namespaces/inkscape"
   xmlns:sodipodi="http://sodipodi.sourceforge.net/DTD/sodipodi-0.dtd"
   xmlns="http://www.w3.org/2000/svg"
   xmlns:svg="http://www.w3.org/2000/svg">
  <sodipodi:namedview
     id="namedview197"
     pagecolor="#ffffff"
     bordercolor="#000000"
     borderopacity="0.25"
     inkscape:showpageshadow="2"
     inkscape:pageopacity="0.0"
     inkscape:pagecheckerboard="0"
     inkscape:deskcolor="#d1d1d1"
     inkscape:document-units="mm"
     showgrid="false"
     inkscape:zoom="17.375939"
     inkscape:cx="6.0140635"
     inkscape:cy="14.819343"
     inkscape:window-width="1920"
     inkscape:window-height="1012"
     inkscape:window-x="1920"
     inkscape:window-y="0"
     inkscape:window-maximized="1"
     inkscape:current-layer="layer1" />
  <defs
     id="defs192" />
  <g
     inkscape:label="Calque 1"
     inkscape:groupmode="layer"
     id="layer1"
     transform="translate(-28.457543,-98.033793)">
    <path
       d="m 32.482918,102.6029 a 7.9048275,7.8636967 0 0 0 -1.009824,0.41545 c -0.123322,0.0196 -0.247952,0.029 -0.372912,0.0287 -0.08483,0 -0.170979,-0.006 -0.253356,-0.0137 a 7.6008648,7.5613156 0 0 1 2.028491,-0.79049 1.9523369,1.9421784 0 0 1 -0.392399,0.36005 z m 0.757121,-0.8985 c -0.04029,0.0792 -0.08254,0.15608 -0.128397,0.23297 a 7.8226134,7.7819104 0 0 0 -2.645752,1.02478 2.4148316,2.4022667 0 0 1 -0.34769,-0.12871 c 0.902881,-0.58049 1.966422,-0.97525 3.121839,-1.12904 z m -3.383548,0.99267 c -0.08844,-0.0539 -0.173108,-0.11372 -0.253357,-0.17921 1.069437,-0.71685 2.376182,-1.17254 3.795438,-1.25742 -0.0172,0.0634 -0.03439,0.12284 -0.05388,0.18247 -1.294297,0.14451 -2.488693,0.59091 -3.488035,1.25416 z m -0.639205,-0.58651 c 1.226659,-0.81689 2.703235,-1.26671 4.253182,-1.28267 a 1.4674053,1.45977 0 0 1 -0.01719,0.17318 c -1.516865,0.0792 -2.9109,0.56338 -4.045683,1.3322 a 2.158527,2.1472957 0 0 1 -0.190468,-0.22255 z m 2.551745,-1.36528 a 7.8414473,7.8006462 0 0 0 -1.331965,0.41545 v -1.14403 l 0.66541,-0.665532 0.665409,0.665532 z m -0.665409,-2.436151 c 1.26318,0 2.301501,0.995937 2.366846,2.245541 a 8.4670596,8.4230034 0 0 0 -1.456924,0.14222 v -0.731837 a 0.13593152,0.13522423 0 0 0 -0.03685,-0.0883 l -0.788075,-0.788536 c -0.04602,-0.04611 -0.128398,-0.04611 -0.173272,0 l -0.788238,0.790654 a 0.12495873,0.12430854 0 0 0 -0.03669,0.0883 v 1.303369 a 7.5679466,7.5285687 0 0 0 -1.124464,0.62659 2.3720869,2.3597444 0 0 1 -0.336226,-1.21147 c 0.0036,-1.311519 1.067144,-2.376206 2.374052,-2.376206 l -1.64e-4,-4.88e-4 z m 0,-0.275336 c -1.459544,0 -2.646079,1.186389 -2.646079,2.645837 0,1.45944 1.186371,2.64583 2.645915,2.64583 1.45938,0 2.645752,-1.18639 2.645752,-2.64583 0,-1.459448 -1.186372,-2.645837 -2.645752,-2.645837 z"
       id="path9"
       style="fill:#fa6484;fill-opacity:1;stroke:none;stroke-width:0.163603;stroke-dasharray:none;stroke-opacity:1" />
  </g>
</svg>
