<svg width="100%" height="100%" viewBox="0 0 169 56" fill="none" xmlns="http://www.w3.org/2000/svg">
<path d="M34.491 10.7257H25.623L35.2542 40.3492L39.7972 26.7049L34.491 10.7257Z" fill="currentcolor"></path>
<path d="M0 0H9.26774V35.3876H30.6017L29.5477 43.0124H0V0Z" fill="currentcolor"></path>
<path d="M70.2896 28.3101H66.6552C61.2763 28.3101 59.3137 29.9518 59.3137 33.0528C59.3137 35.3876 60.7311 37.3577 63.9294 37.3577C69.5991 37.3577 70.2896 33.4176 70.2896 29.1492V28.3101ZM79.1212 43.0124H70.5077C70.5077 42.2463 70.435 40.6775 70.435 39.8385C69.272 41.6626 67.0913 43.742 61.3853 43.742C53.644 43.742 50.373 38.6345 50.373 33.6C50.373 26.2306 56.2608 22.8378 65.6739 22.8378H70.2533V20.8678C70.2533 18.5694 69.4173 16.3075 65.3105 16.3075C61.567 16.3075 60.7311 17.9127 60.3313 20.2476H51.8632C52.3356 14.5199 55.8973 9.85018 65.6739 9.92315C74.2875 9.99611 79.1576 13.8267 79.1576 21.488" fill="currentcolor"></path>
<path d="M79.8115 10.7987H88.4251C88.6068 11.6378 88.7158 13.8632 88.7522 14.9212C89.8425 12.8782 92.4593 10.0691 98.0926 10.0691C104.562 10.0691 108.741 14.4469 108.741 22.5824V43.1219H99.8371V23.531C99.8371 19.9193 98.6378 17.2561 94.7126 17.2561C90.9328 17.2561 88.7522 19.372 88.7522 25.0632V43.0489H79.8479" fill="currentcolor"></path>
<path d="M109.396 19.1166C109.396 16.3805 109.396 13.3524 109.323 10.9811H117.937C118.119 11.8202 118.228 14.0456 118.264 15.1036C119.354 13.0606 121.971 10.2515 127.604 10.2515C134.074 10.2515 138.253 14.6293 138.253 22.7648V43.3042H129.385V23.7498C129.385 20.1016 128.186 17.4749 124.261 17.4749C120.481 17.4749 118.3 19.5909 118.3 25.2821V43.2678H109.396V19.1166Z" fill="currentcolor"></path>
<path d="M160.096 23.5675C160.023 19.8098 158.533 16.6359 154.208 16.6359C149.956 16.6359 148.212 19.5909 147.885 23.5675H160.096ZM147.666 29.0398C147.666 33.0893 149.702 37.0294 154.136 37.0294C157.843 37.0294 158.897 35.5336 159.733 33.5636H168.637C167.51 37.5036 163.985 43.9974 153.881 43.9974C143.269 43.9974 138.689 36.0443 138.689 27.5805C138.689 17.4385 143.85 10.215 154.208 10.215C165.257 10.215 169 18.2411 169 26.3036C169 27.3981 169 28.0912 168.891 29.0398H147.666Z" fill="currentcolor"></path>
<path d="M44.3403 40.3491L39.7972 26.7048L35.2542 40.3491L36.4172 43.9244C37.1441 46.1498 37.871 47.9739 38.5979 49.5061C37.8347 47.9739 37.1441 46.1498 36.4172 43.9244L35.2542 40.3491L34.0549 43.9973C32.8555 47.5726 31.1837 48.7035 27.9127 48.7035C27.1858 48.7035 26.2046 48.6306 25.623 48.5576V55.7446C27.1495 55.927 29.003 55.9999 29.8026 55.9999C34.7818 55.9999 37.5803 54.869 39.7972 51.5856C41.0329 49.7615 42.0506 47.2807 43.1772 43.9609L44.3403 40.3491Z" fill="#CE5C2F"></path>
<path d="M45.1031 10.7257L39.7969 26.7049L44.3399 40.3492L53.9711 10.7257H45.1031Z" fill="#CE5C2F"></path>
</svg>