<?xml version="1.0" encoding="UTF-8" standalone="no"?>
<svg
   version="1.0"
   width="192.000000pt"
   height="192.000000pt"
   viewBox="0 0 192.000000 192.000000"
   preserveAspectRatio="xMidYMid meet"
   id="svg183"
   sodipodi:docname="misakey.svg"
   inkscape:version="1.2.2 (b0a8486541, 2022-12-01)"
   xmlns:inkscape="http://www.inkscape.org/namespaces/inkscape"
   xmlns:sodipodi="http://sodipodi.sourceforge.net/DTD/sodipodi-0.dtd"
   xmlns="http://www.w3.org/2000/svg"
   xmlns:svg="http://www.w3.org/2000/svg">
  <defs
     id="defs187" />
  <sodipodi:namedview
     id="namedview185"
     pagecolor="#ffffff"
     bordercolor="#000000"
     borderopacity="0.25"
     inkscape:showpageshadow="2"
     inkscape:pageopacity="0.0"
     inkscape:pagecheckerboard="0"
     inkscape:deskcolor="#d1d1d1"
     inkscape:document-units="pt"
     showgrid="false"
     inkscape:zoom="3.3671875"
     inkscape:cx="70.088167"
     inkscape:cy="104.38979"
     inkscape:window-width="1920"
     inkscape:window-height="1012"
     inkscape:window-x="1920"
     inkscape:window-y="0"
     inkscape:window-maximized="1"
     inkscape:current-layer="g181" />
  <metadata
     id="metadata177">
Created by potrace 1.10, written by Peter Selinger 2001-2011
</metadata>
  <g
     transform="translate(0.000000,192.000000) scale(0.100000,-0.100000)"
     fill="#000000"
     stroke="none"
     id="g181">
    <path
       d="M403 1557 c-2 -4 -24 -128 -49 -275 -25 -147 -69 -411 -100 -587 -30 -176 -56 -326 -57 -333 -2 -10 33 -13 156 -15 86 -1 157 0 157 3 0 3 20 147 45 320 25 173 45 330 45 348 0 43 16 41 31 -5 6 -21 64 -171 129 -333 64 -162 120 -303 123 -313 6 -15 17 -17 72 -15 l66 3 85 205 c47 113 111 269 142 347 31 78 60 142 63 143 4 0 10 -30 13 -67 10 -95 76 -627 79 -629 1 -2 73 -4 160 -6 154 -3 158 -2 153 17 -6 26 -140 899 -163 1068 l-18 128 -158 2 -157 2 -119 -300 c-66 -165 -125 -313 -131 -330 -11 -28 -18 -12 -134 298 l-122 328 -153 2 c-84 1 -155 -1 -158 -6z m291 -49 c8 -13 35 -79 61 -148 26 -69 53 -138 60 -155 7 -16 27 -70 45 -120 39 -108 63 -157 85 -175 15 -13 20 -11 39 12 19 24 96 194 96 211 0 4 8 26 19 50 10 23 42 101 71 172 76 191 58 175 204 175 l124 0 11 -32 c10 -30 40 -216 62 -381 8 -64 37 -252 59 -392 5 -33 17 -112 25 -175 9 -63 18 -122 20 -130 10 -36 -9 -42 -121 -41 -126 2 -128 3 -138 88 -3 32 -8 74 -11 93 -2 19 -16 127 -31 240 -23 187 -41 260 -63 260 -23 0 -58 -65 -136 -255 -20 -49 -43 -103 -50 -120 -7 -16 -36 -86 -64 -155 -29 -69 -61 -132 -71 -141 -20 -18 -63 -15 -79 5 -5 6 -63 148 -130 315 -108 272 -147 351 -172 351 -19 0 -37 -62 -54 -180 -10 -69 -19 -134 -21 -145 -2 -11 -11 -76 -20 -145 -9 -69 -21 -143 -28 -165 l-11 -40 -117 -3 -118 -3 0 29 c0 16 12 96 26 178 14 82 29 172 34 199 4 28 15 92 24 142 9 51 20 121 25 155 5 35 17 104 26 153 9 50 18 108 21 130 3 22 8 47 10 55 3 8 8 30 10 49 8 58 14 61 145 61 112 0 119 -1 133 -22z"
       id="path179"
       style="fill:#e32c72;fill-opacity:1" />
    <path
       style="fill:#e32c72;fill-opacity:1;stroke-width:0.297451"
       d="m 124.30487,205.06963 c -2.02407,-0.72105 -2.62465,-1.39769 -3.98238,-4.48667 -1.96641,-4.4738 -8.34687,-20.04894 -14.64807,-35.75697 -12.722162,-31.71461 -16.893712,-41.18783 -20.613095,-46.81054 -1.705337,-2.57801 -2.616228,-3.37972 -3.84,-3.37972 -1.664781,0 -3.091913,2.78871 -4.615968,9.0199 -1.44793,5.91994 -2.564396,13.2296 -8.894272,58.23209 -1.383519,9.83619 -2.217277,14.33796 -3.557636,19.20901 l -0.944605,3.43282 -7.474491,0.19291 c -4.110971,0.1061 -11.13742,0.28218 -15.614333,0.39129 l -8.13984,0.19837 0.176941,-3.24074 c 0.265816,-4.86855 1.5868,-13.23732 8.52767,-54.02498 2.713812,-15.94756 4.780459,-28.43706 6.511338,-39.35034 0.660613,-4.1652 1.86356,-11.32363 2.673217,-15.907619 0.809657,-4.583991 1.953082,-11.46659 2.540946,-15.294664 0.587864,-3.828074 1.40602,-8.430204 1.818127,-10.226956 0.412105,-1.796751 1.012541,-4.870533 1.334301,-6.830626 0.974004,-5.933423 2.043247,-7.195743 6.655377,-7.857159 2.728081,-0.391229 24.239075,-0.399477 26.316774,-0.01009 1.803232,0.337948 2.789838,0.955271 3.727348,2.332213 0.990622,1.454953 4.029048,8.813637 9.152471,22.166128 2.56967,6.696984 5.47479,14.180975 6.45582,16.631091 0.98103,2.450116 3.35771,8.731322 5.28153,13.958232 4.63122,12.58283 5.36997,14.44086 7.59699,19.10735 2.97498,6.23372 5.23026,8.95762 7.41657,8.95762 0.62822,0 1.20197,-0.39027 2.29222,-1.55917 2.52391,-2.70597 11.5114,-21.73348 13.53758,-28.66055 0.46557,-1.59169 1.92071,-5.43318 3.23364,-8.536661 3.40265,-8.043086 6.74121,-16.184864 10.83835,-26.431554 5.29647,-13.246148 6.79093,-15.879644 9.85243,-17.361694 2.00522,-0.970706 6.26559,-1.178693 19.59584,-0.956648 l 12.14676,0.202332 0.72718,1.930395 c 1.71755,4.55945 4.62026,21.637452 8.83359,51.97216 1.07764,7.7587 3.55081,24.46403 5.49592,37.12297 3.53473,23.00422 4.09507,26.77537 6.08967,40.98375 0.58471,4.1652 1.40701,9.64455 1.82733,12.17634 0.94545,5.695 0.94333,6.20269 -0.0295,7.03954 -1.43431,1.23381 -2.54598,1.36534 -12.64523,1.49606 -13.20707,0.17095 -16.46859,-0.23451 -18.43057,-2.29118 -1.33318,-1.39751 -1.85886,-3.23926 -2.50287,-8.76878 -1.98628,-17.0544 -6.9985,-55.3153 -8.17009,-62.36659 -1.45582,-8.76194 -3.19077,-14.92763 -4.65605,-16.54675 -0.67039,-0.74078 -2.09121,-0.6599 -3.19482,0.18187 -2.06741,1.57689 -6.08343,8.94108 -10.78702,19.78019 -2.13961,4.9306 -14.50574,34.55138 -19.93974,47.76196 -3.94411,9.58853 -8.28867,18.48729 -10.04481,20.57435 -0.43754,0.51998 -1.33563,1.19076 -1.99575,1.49061 -1.44589,0.65678 -4.26095,0.71137 -5.93479,0.1151 z"
       id="path989"
       transform="matrix(7.5,0,0,-7.5,0,1920)" />
    <path
       style="fill:#e32c72;fill-opacity:1;stroke-width:0.69733333;stroke:#e32c72;stroke-opacity:1;stroke-dasharray:none"
       d="m 37.568445,209.36624 c -7.700183,-0.2693 -11.13689,-0.72752 -11.13689,-1.48491 0,-0.14202 2.07211,-12.32655 4.60469,-27.07673 5.443085,-31.70147 10.741594,-62.75925 15.29113,-89.630586 2.742239,-16.196731 6.5995,-38.258507 7.311589,-41.818949 0.108975,-0.544877 0.42737,-0.981735 0.815172,-1.118465 0.884589,-0.311887 35.10684,-0.502469 38.198426,-0.212726 l 2.517989,0.235987 3.97418,10.691415 c 10.645799,28.639534 21.346279,57.103394 23.461159,62.407984 3.49988,8.77847 4.83722,11.39248 5.82843,11.39248 0.32715,0 1.64457,-2.27692 1.64457,-2.84232 0,-0.0968 5.40708,-13.76319 12.01574,-30.369828 6.60866,-16.606637 13.95253,-35.071843 16.31972,-41.033792 l 4.30397,-10.839907 2.31602,-0.0826 c 3.19828,-0.114068 39.24991,0.388507 39.41081,0.549404 0.0716,0.07158 0.74783,4.539685 1.50279,9.92912 3.54403,25.300008 17.36448,116.531393 21.87584,144.406493 0.66715,4.1223 0.87712,6.10967 0.66762,6.31918 -0.76459,0.76459 -4.32511,0.93974 -15.25706,0.75055 -11.03749,-0.19102 -25.84883,-0.6707 -26.02085,-0.84272 -0.32227,-0.32228 -7.27248,-55.38084 -10.0552,-79.65588 -1.15003,-10.03233 -1.46229,-11.96706 -2.06433,-12.7904 -0.36504,-0.49921 -0.46094,-0.4186 -1.17251,0.98563 -1.60513,3.16757 -4.55369,10.10521 -9.73212,22.89863 -4.77029,11.78512 -13.63537,33.33387 -24.39221,59.29129 l -3.69213,8.90952 -1.45389,0.21463 c -0.79963,0.11804 -4.39402,0.25169 -7.98753,0.29698 -5.34129,0.0673 -6.69623,8.9e-4 -7.42459,-0.36396 -0.77472,-0.3881 -1.13504,-1.06612 -2.76199,-5.19722 -8.1115,-20.59647 -11.99957,-30.44165 -17.885658,-45.28918 -7.434347,-18.75299 -12.251706,-31.21106 -13.838146,-35.78654 -1.456693,-4.20128 -2.434004,-5.91622 -3.437548,-6.03208 -0.706067,-0.0815 -0.833868,0.041 -1.084671,1.03945 -0.156365,0.62251 -0.367499,2.3484 -0.469187,3.8353 -0.39042,5.70884 -2.239011,19.63461 -8.294563,62.48447 l -3.630389,25.6891 -1.918414,0.18802 c -2.522262,0.24721 -20.805587,0.217 -28.349969,-0.0468 z m 92.607965,-4.03055 c 0.86891,-0.29607 1.73288,-0.88145 2.30117,-1.55916 1.19978,-1.4308 7.132,-13.49244 9.58967,-19.49811 5.13211,-12.54102 19.40763,-46.68767 21.43348,-51.26827 5.43921,-12.29847 9.04578,-18.07744 11.28188,-18.07744 2.14425,0 4.20142,6.45154 6.20903,19.47222 1.1339,7.35406 6.11631,45.5804 7.45403,57.18923 0.87748,7.61483 1.12107,8.82422 2.13655,10.60782 1.62075,2.8467 5.2218,3.43782 19.68228,3.23092 9.94703,-0.14233 11.24852,-0.30684 12.64165,-1.59795 0.99002,-0.91751 0.96785,-1.26292 -0.84547,-13.17138 -0.7586,-4.9819 -1.85529,-12.46589 -2.43709,-16.63109 -0.5818,-4.16519 -2.7208,-18.39814 -4.75333,-31.62877 -2.03253,-13.23062 -4.44162,-29.46821 -5.35353,-36.08352 -3.94843,-28.643149 -6.94751,-46.44706 -8.70574,-51.681284 l -0.84592,-2.518256 -11.70411,-0.148492 c -15.19341,-0.192761 -18.45318,-0.03058 -20.61172,1.025501 -3.28402,1.606718 -4.3261,3.482743 -10.48318,18.872411 -2.4506,6.12529 -6.08325,15.012529 -8.07255,19.74942 -3.45796,8.234035 -4.45404,10.82437 -5.93313,15.42926 -1.32342,4.12023 -7.04224,16.85938 -10.05294,22.39377 -1.73525,3.1898 -3.56922,5.55907 -4.63764,5.99129 l -0.61829,0.25012 0.63039,0.0188 c 1.55385,0.0464 4.57111,-4.67606 8.90613,-13.93942 3.38815,-7.24002 4.92926,-10.92791 6.67825,-15.98109 0.83043,-2.39926 3.25193,-8.572041 5.38111,-13.717285 2.12919,-5.145243 5.59727,-13.631554 7.70684,-18.858468 6.05648,-15.006234 7.84808,-18.324275 10.6723,-19.765087 2.21125,-1.128094 10.4455,-1.444208 25.44849,-0.97697 l 6.27103,0.195298 0.44902,1.122217 c 1.81621,4.539161 3.99974,17.09406 8.91026,51.232485 1.55311,10.79739 4.35569,29.77465 6.22795,42.1717 2.99762,19.8485 6.67957,44.67631 7.72491,52.08996 0.41619,2.95168 0.28539,3.7531 -0.73712,4.51651 -1.20008,0.896 -3.9569,1.11385 -14.17555,1.12021 -12.57615,0.008 -15.06842,-0.39241 -16.69851,-2.68166 -1.08506,-1.52383 -1.44151,-3.28368 -2.67378,-13.201 -3.05359,-24.57523 -6.43964,-50.15155 -7.56865,-57.16937 -0.99272,-6.17065 -2.67713,-12.87625 -3.81521,-15.18826 -0.78297,-1.59062 -1.06392,-1.90367 -1.7821,-1.98574 -2.04511,-0.23372 -3.28674,0.80477 -5.57494,4.6628 -3.84344,6.48025 -5.92219,11.14808 -19.81401,44.49241 -14.42033,34.61286 -16.76853,39.47417 -19.75128,40.88957 -1.6037,0.76101 -5.11373,0.65564 -6.74933,-0.20261 -2.04658,-1.0739 -1.89076,-0.72607 -16.45632,-36.7354 -16.053565,-39.68799 -19.583149,-47.51475 -23.364913,-51.81106 -1.021794,-1.16082 -1.343917,-1.34677 -2.333054,-1.34677 -1.467902,0 -2.335365,1.06744 -3.530208,4.34405 -1.879856,5.15512 -2.701792,9.94398 -7.741374,45.10375 -4.175138,29.12876 -4.124077,28.81267 -5.692621,35.23958 l -1.207417,4.94723 -3.308197,0.17194 c -1.819509,0.0946 -7.050195,0.24258 -11.623745,0.32892 -4.57355,0.0864 -10.093379,0.23819 -12.266287,0.33744 l -3.950741,0.18046 0.18545,-2.33829 c 0.511123,-6.44457 1.553839,-13.16949 7.436984,-47.9642 2.033539,-12.02697 5.032611,-30.00192 6.664604,-39.94432 6.6904,-40.759127 9.527336,-56.701802 10.493594,-58.970655 0.52194,-1.225556 1.494562,-2.133924 3.022816,-2.823122 1.072723,-0.483767 2.44388,-0.54242 14.603473,-0.624684 8.971243,-0.06069 13.815167,0.01573 14.612946,0.230548 2.557903,0.688772 3.277067,1.833862 7.09319,11.294115 3.589541,8.898558 12.38214,31.663324 17.20593,44.547568 4.90006,13.08796 7.47088,19.09736 9.69952,22.67306 1.47139,2.36075 3.42714,4.35315 4.2713,4.35135 0.36189,-8.9e-4 0.24932,-0.16909 -0.37208,-0.55634 -3.52451,-2.19641 -6.11011,-7.50882 -13.78865,-28.33025 -1.94142,-5.26443 -4.46136,-11.910446 -5.59987,-14.768915 -1.1385,-2.858468 -3.90716,-10.008352 -6.15257,-15.888631 C 96.668852,63.735435 93.510103,56.191898 92.321114,54.4482 90.748282,52.141584 90.596398,52.12065 75.433875,52.12065 c -14.681511,0 -15.897954,0.116902 -17.702415,1.701241 -1.357326,1.191748 -1.757149,2.225024 -2.353581,6.082458 -0.27253,1.762585 -0.811081,4.521461 -1.196782,6.130835 -0.3857,1.609374 -0.970955,4.616335 -1.300566,6.682135 -1.953747,12.244882 -2.845624,17.611687 -4.02961,24.247878 -0.728556,4.083523 -1.998241,11.767983 -2.821521,17.076563 -0.823281,5.30859 -2.498948,15.53225 -3.723704,22.71926 -1.224756,7.18701 -2.956307,17.34385 -3.847892,22.57077 -5.119913,30.01547 -6.343284,37.96753 -6.598069,42.8882 l -0.175496,3.38936 7.693843,-0.19508 c 4.231614,-0.10729 11.388335,-0.28357 15.903824,-0.39173 l 8.209982,-0.19665 1.059361,-4.03707 c 1.36094,-5.18636 2.261113,-10.15422 3.610509,-19.92571 7.134863,-51.66615 8.728671,-60.62612 11.524758,-64.78915 3.040965,-4.52763 7.610728,3.83602 22.824014,41.77291 9.56361,23.84844 17.03638,42.05737 18.22098,44.39907 0.37183,0.73503 1.00911,1.64701 1.41618,2.0266 1.55327,1.44844 5.40218,1.95811 8.02872,1.06315 z"
       id="path991"
       transform="matrix(7.5,0,0,-7.5,0,1920)" />
    <path
       style="fill:#e32c72;fill-opacity:1;stroke-width:7.51178"
       d="m 376.88152,1257.8755 c -2.03433,-9.0967 -4.31584,-18.1417 -6.10299,-27.2902 -1.97253,-10.0976 0,-22.565 0,-32.9074 0,-21.7337 0,-43.4675 0,-65.2013"
       id="path1173" />
  </g>
</svg>
